<?xml version="1.0" encoding="iso-8859-1"?>
<!-- Generator: Adobe Illustrator 19.0.0, SVG Export Plug-In . SVG Version: 6.00 Build 0)  -->
<svg version="1.1" id="Layer_1" xmlns="http://www.w3.org/2000/svg" xmlns:xlink="http://www.w3.org/1999/xlink" x="0px" y="0px"
	 viewBox="0 0 512.035 512.035" style="enable-background:new 0 0 512.035 512.035;" xml:space="preserve">
<g transform="translate(1 1)">
	<path style="fill:#FD9808;" d="M434.2,109.968h-85.333c-9.387,0-17.067-7.68-17.067-17.067V7.568H178.2
		c-9.387,0-17.067,7.68-17.067,17.067v460.8c0,9.387,7.68,17.067,17.067,17.067h238.933c9.387,0,17.067-7.68,17.067-17.067V109.968z
		"/>
	<path style="fill:#FFFFFF;" d="M348.867,109.968h-85.333c-9.387,0-17.067-7.68-17.067-17.067V7.568h-153.6
		c-9.387,0-17.067,7.68-17.067,17.067v460.8c0,9.387,7.68,17.067,17.067,17.067H331.8c9.387,0,17.067-7.68,17.067-17.067V109.968z"
		/>
	<path style="fill:#1CD759;" d="M434.2,109.968h-85.333c-9.387,0-17.067-7.68-17.067-17.067V7.568L434.2,109.968z"/>
	<path style="fill:#FFDD09;" d="M408.6,109.968h-85.333c-9.387,0-17.067-7.68-17.067-17.067V7.568H118.467
		c-9.387,0-17.067,7.68-17.067,17.067v460.8c0,9.387,7.68,17.067,17.067,17.067h273.067c9.387,0,17.067-7.68,17.067-17.067V109.968z
		"/>
	<g>
		<path style="fill:#1CD759;" d="M278.04,187.621c-12.8-11.947-34.133-11.947-46.933,0c-9.387,9.387-18.773,21.333-18.773,33.28
			c0,0,3.413,42.667,42.667,42.667s42.667-42.667,42.667-42.667C297.667,208.955,288.28,197.008,278.04,187.621"/>
		<path style="fill:#1CD759;" d="M323.267,297.701c0-42.667-14.507-64.853-22.187-73.387c-0.853-0.853-2.56-2.56-3.413-2.56
			c-0.853,5.973-6.827,41.813-42.667,41.813s-41.813-35.84-42.667-41.813c-1.707,0.853-2.56,1.707-3.413,2.56
			c-7.68,8.533-22.187,30.72-22.187,73.387c0,0-0.853,33.28,34.133,68.267l5.12,5.12c16.213,16.213,41.813,16.213,58.027,0
			l5.12-5.12C324.12,330.981,323.267,297.701,323.267,297.701"/>
	</g>
	<path d="M255,272.101c-37.547,0-49.493-33.28-51.2-50.347c0-13.653,7.68-26.453,22.187-40.107c16.213-15.36,41.813-15.36,58.88,0
		l0,0c13.653,13.653,21.333,26.453,21.333,39.253C304.493,238.821,292.547,272.101,255,272.101z M255,186.768
		c-5.973,0-12.8,2.56-17.92,6.827c-10.24,10.24-16.213,19.627-16.213,27.307c0,2.56,3.413,34.133,34.133,34.133
		c31.573,0,34.133-33.28,34.133-34.987c0-6.827-5.973-16.213-16.213-26.453l0,0C267.8,189.328,260.973,186.768,255,186.768z"/>
	<path d="M255,391.568c-12.8,0-25.6-5.12-34.987-14.507l-5.12-5.12c-37.547-37.547-36.693-73.387-36.693-74.24
		c0-44.373,15.36-68.267,23.893-78.507c1.707-2.56,4.267-3.413,6.827-5.12l10.24-4.267l1.707,11.093
		c0.853,7.68,5.973,34.133,34.133,34.133s33.28-26.453,34.133-34.133l1.707-11.093l10.24,4.267c2.56,0.853,5.12,2.56,6.827,5.12
		c8.533,10.24,23.893,34.133,23.893,78.507c0,3.413,0,38.4-36.693,74.24l-5.12,5.12C280.6,386.448,267.8,391.568,255,391.568z
		 M208.067,239.675c-5.973,11.093-12.8,29.867-12.8,58.027c0,1.707,0,30.72,31.573,62.293l5.12,5.12c12.8,12.8,33.28,12.8,46.08,0
		l5.12-5.12c32.427-32.427,31.573-61.44,31.573-62.293l0,0c0-28.16-6.827-46.933-12.8-58.027
		c-6.827,17.067-21.333,32.427-46.933,32.427S214.893,256.741,208.067,239.675z"/>
	<path d="M229.4,195.301c-2.56,0-4.267-0.853-5.973-2.56l-17.067-17.067c-3.413-3.413-3.413-8.533,0-11.947s8.533-3.413,11.947,0
		l17.067,17.067c3.413,3.413,3.413,8.533,0,11.947C233.667,194.448,231.96,195.301,229.4,195.301z"/>
	<path d="M280.6,195.301c-2.56,0-4.267-0.853-5.973-2.56c-3.413-3.413-3.413-8.533,0-11.947l17.067-17.067
		c3.413-3.413,8.533-3.413,11.947,0s3.413,8.533,0,11.947l-17.067,17.067C284.867,194.448,283.16,195.301,280.6,195.301z"/>
	<path d="M195.267,255.035c-1.707,0-3.413-0.853-5.12-1.707l-23.04-15.36H152.6c-5.12,0-8.533-3.413-8.533-8.533
		c0-5.12,3.413-8.533,8.533-8.533h19.627l28.16,18.773c4.267,2.56,5.12,7.68,2.56,11.947
		C200.387,253.328,197.827,255.035,195.267,255.035z"/>
	<path d="M135.533,323.301c-1.707,0-3.413-0.853-5.12-1.707c-4.267-2.56-5.12-7.68-2.56-11.947l20.48-29.013h38.4
		c5.12,0,8.533,3.413,8.533,8.533c0,5.12-3.413,8.533-8.533,8.533h-29.867l-14.507,22.187
		C140.653,321.595,138.093,323.301,135.533,323.301z"/>
	<path d="M161.133,383.035c-1.707,0-3.413-0.853-5.12-1.707c-4.267-2.56-5.12-7.68-2.56-11.947l19.627-29.013h30.72
		c5.12,0,8.533,3.413,8.533,8.533c0,5.12-3.413,8.533-8.533,8.533h-21.333l-14.507,22.187
		C166.253,381.328,163.693,383.035,161.133,383.035z"/>
	<path d="M314.733,255.035c-2.56,0-5.12-1.707-6.827-3.413c-2.56-4.267-1.707-9.387,2.56-11.947l28.16-18.773H357.4
		c5.12,0,8.533,3.413,8.533,8.533c0,5.12-3.413,8.533-8.533,8.533h-14.507l-23.04,15.36
		C318.147,254.181,316.44,255.035,314.733,255.035z"/>
	<path d="M374.467,323.301c-2.56,0-5.12-1.707-6.827-3.413l-14.507-22.187h-29.867c-5.12,0-8.533-3.413-8.533-8.533
		c0-5.12,3.413-8.533,8.533-8.533h38.4l19.627,29.013c2.56,4.267,1.707,9.387-2.56,11.947
		C377.88,322.448,376.173,323.301,374.467,323.301z"/>
	<path d="M348.867,383.035c-2.56,0-5.12-1.707-6.827-3.413l-14.507-22.187H306.2c-5.12,0-8.533-3.413-8.533-8.533
		c0-5.12,3.413-8.533,8.533-8.533h29.867l19.627,29.013c2.56,4.267,1.707,9.387-2.56,11.947
		C352.28,382.181,350.573,383.035,348.867,383.035z"/>
	<path d="M434.2,118.501h-85.333c-14.507,0-25.6-11.093-25.6-25.6V7.568c0-3.413,1.707-6.827,5.12-7.68
		c3.413-1.707,6.827-0.853,9.387,1.707l102.4,102.4c2.56,2.56,3.413,5.973,1.707,9.387
		C441.027,116.795,437.613,118.501,434.2,118.501z M340.333,28.048v64.853c0,5.12,3.413,8.533,8.533,8.533h64.853L340.333,28.048z"
		/>
	<path d="M417.133,511.035H92.867c-14.507,0-25.6-11.093-25.6-25.6v-460.8c0-14.507,11.093-25.6,25.6-25.6H331.8
		c5.12,0,8.533,3.413,8.533,8.533v85.333c0,5.12,3.413,8.533,8.533,8.533H434.2c5.12,0,8.533,3.413,8.533,8.533v375.467
		C442.733,499.941,431.64,511.035,417.133,511.035z M92.867,16.101c-5.12,0-8.533,3.413-8.533,8.533v460.8
		c0,5.12,3.413,8.533,8.533,8.533h324.267c5.12,0,8.533-3.413,8.533-8.533V118.501h-76.8c-14.507,0-25.6-11.093-25.6-25.6v-76.8
		H92.867z"/>
	<path d="M203.8,101.435h-59.733c-5.12,0-8.533-3.413-8.533-8.533s3.413-8.533,8.533-8.533H203.8c5.12,0,8.533,3.413,8.533,8.533
		S208.92,101.435,203.8,101.435z"/>
	<path d="M161.133,135.568h-42.667c-5.12,0-8.533-3.413-8.533-8.533s3.413-8.533,8.533-8.533h42.667c5.12,0,8.533,3.413,8.533,8.533
		S166.253,135.568,161.133,135.568z"/>
	<path d="M203.8,135.568h-8.533c-5.12,0-8.533-3.413-8.533-8.533s3.413-8.533,8.533-8.533h8.533c5.12,0,8.533,3.413,8.533,8.533
		S208.92,135.568,203.8,135.568z"/>
	<path d="M391.533,434.235H331.8c-5.12,0-8.533-3.413-8.533-8.533s3.413-8.533,8.533-8.533h59.733c5.12,0,8.533,3.413,8.533,8.533
		S396.653,434.235,391.533,434.235z"/>
	<path d="M348.867,468.368H306.2c-5.12,0-8.533-3.413-8.533-8.533s3.413-8.533,8.533-8.533h42.667c5.12,0,8.533,3.413,8.533,8.533
		S353.987,468.368,348.867,468.368z"/>
	<path d="M391.533,468.368H383c-5.12,0-8.533-3.413-8.533-8.533s3.413-8.533,8.533-8.533h8.533c5.12,0,8.533,3.413,8.533,8.533
		S396.653,468.368,391.533,468.368z"/>
</g>
<g>
</g>
<g>
</g>
<g>
</g>
<g>
</g>
<g>
</g>
<g>
</g>
<g>
</g>
<g>
</g>
<g>
</g>
<g>
</g>
<g>
</g>
<g>
</g>
<g>
</g>
<g>
</g>
<g>
</g>
</svg>
