<?xml version="1.0" encoding="UTF-8" standalone="no"?>
<!-- Created with Inkscape (http://www.inkscape.org/) -->

<svg
   xmlns:dc="http://purl.org/dc/elements/1.1/"
   xmlns:cc="http://creativecommons.org/ns#"
   xmlns:rdf="http://www.w3.org/1999/02/22-rdf-syntax-ns#"
   xmlns:svg="http://www.w3.org/2000/svg"
   xmlns="http://www.w3.org/2000/svg"
   xmlns:sodipodi="http://sodipodi.sourceforge.net/DTD/sodipodi-0.dtd"
   xmlns:inkscape="http://www.inkscape.org/namespaces/inkscape"
   width="67.053688mm"
   height="21.419172mm"
   viewBox="0 0 67.053688 21.419172"
   version="1.1"
   id="svg8"
   inkscape:version="0.92.1 r"
   sodipodi:docname="triafu3.svg">
  <defs
     id="defs2" />
  <sodipodi:namedview
     id="base"
     pagecolor="#ffffff"
     bordercolor="#666666"
     borderopacity="1.0"
     inkscape:pageopacity="0.0"
     inkscape:pageshadow="2"
     inkscape:zoom="3.959798"
     inkscape:cx="117.12691"
     inkscape:cy="57.233882"
     inkscape:document-units="mm"
     inkscape:current-layer="layer1"
     showgrid="false"
     fit-margin-top="0"
     fit-margin-left="0"
     fit-margin-right="0"
     fit-margin-bottom="0"
     inkscape:window-width="1920"
     inkscape:window-height="1023"
     inkscape:window-x="1366"
     inkscape:window-y="28"
     inkscape:window-maximized="1" />
  <metadata
     id="metadata5">
    <rdf:RDF>
      <cc:Work
         rdf:about="">
        <dc:format>image/svg+xml</dc:format>
        <dc:type
           rdf:resource="http://purl.org/dc/dcmitype/StillImage" />
        <dc:title></dc:title>
      </cc:Work>
    </rdf:RDF>
  </metadata>
  <g
     inkscape:label="Layer 1"
     inkscape:groupmode="layer"
     id="layer1"
     transform="translate(-6.9127456,-115.25575)">
    <g
       transform="matrix(0.28222222,0,0,0.28222222,-55.071159,-69.855999)"
       id="layer1-6"
       inkscape:label="Layer 1">
      <g
         style="stroke:#000000;stroke-width:44.05806351;stroke-linecap:round;stroke-linejoin:round;stroke-miterlimit:4;stroke-dasharray:none;stroke-opacity:1"
         transform="matrix(0.03026687,0,0,0.03026687,298.69982,824.33664)"
         id="g3389-6-4-9">
        <g
           style="stroke:#000000;stroke-width:44.05806351;stroke-linecap:round;stroke-linejoin:round;stroke-miterlimit:4;stroke-dasharray:none;stroke-opacity:1"
           id="g3343-7-7-3">
          <g
             style="stroke:#000000;stroke-width:44.05806351;stroke-linecap:round;stroke-linejoin:round;stroke-miterlimit:4;stroke-dasharray:none;stroke-opacity:1"
             id="g3345-5-8-7" />
        </g>
        <g
           style="stroke:#000000;stroke-width:44.05806351;stroke-linecap:round;stroke-linejoin:round;stroke-miterlimit:4;stroke-dasharray:none;stroke-opacity:1"
           id="g3353-2-3-5" />
        <g
           style="stroke:#000000;stroke-width:44.05806351;stroke-linecap:round;stroke-linejoin:round;stroke-miterlimit:4;stroke-dasharray:none;stroke-opacity:1"
           id="g3355-9-6-4" />
        <g
           style="stroke:#000000;stroke-width:44.05806351;stroke-linecap:round;stroke-linejoin:round;stroke-miterlimit:4;stroke-dasharray:none;stroke-opacity:1"
           id="g3357-1-1-7" />
        <g
           style="stroke:#000000;stroke-width:44.05806351;stroke-linecap:round;stroke-linejoin:round;stroke-miterlimit:4;stroke-dasharray:none;stroke-opacity:1"
           id="g3359-2-0-4" />
        <g
           style="stroke:#000000;stroke-width:44.05806351;stroke-linecap:round;stroke-linejoin:round;stroke-miterlimit:4;stroke-dasharray:none;stroke-opacity:1"
           id="g3361-7-6-4" />
        <g
           style="stroke:#000000;stroke-width:44.05806351;stroke-linecap:round;stroke-linejoin:round;stroke-miterlimit:4;stroke-dasharray:none;stroke-opacity:1"
           id="g3363-0-3-3" />
        <g
           style="stroke:#000000;stroke-width:44.05806351;stroke-linecap:round;stroke-linejoin:round;stroke-miterlimit:4;stroke-dasharray:none;stroke-opacity:1"
           id="g3365-9-2-0" />
        <g
           style="stroke:#000000;stroke-width:44.05806351;stroke-linecap:round;stroke-linejoin:round;stroke-miterlimit:4;stroke-dasharray:none;stroke-opacity:1"
           id="g3367-3-0-7" />
        <g
           style="stroke:#000000;stroke-width:44.05806351;stroke-linecap:round;stroke-linejoin:round;stroke-miterlimit:4;stroke-dasharray:none;stroke-opacity:1"
           id="g3369-6-6-8" />
        <g
           style="stroke:#000000;stroke-width:44.05806351;stroke-linecap:round;stroke-linejoin:round;stroke-miterlimit:4;stroke-dasharray:none;stroke-opacity:1"
           id="g3371-0-1-6" />
        <g
           style="stroke:#000000;stroke-width:44.05806351;stroke-linecap:round;stroke-linejoin:round;stroke-miterlimit:4;stroke-dasharray:none;stroke-opacity:1"
           id="g3373-6-5-8" />
        <g
           style="stroke:#000000;stroke-width:44.05806351;stroke-linecap:round;stroke-linejoin:round;stroke-miterlimit:4;stroke-dasharray:none;stroke-opacity:1"
           id="g3375-2-5-8" />
        <g
           style="stroke:#000000;stroke-width:44.05806351;stroke-linecap:round;stroke-linejoin:round;stroke-miterlimit:4;stroke-dasharray:none;stroke-opacity:1"
           id="g3377-6-4-4" />
        <g
           style="stroke:#000000;stroke-width:44.05806351;stroke-linecap:round;stroke-linejoin:round;stroke-miterlimit:4;stroke-dasharray:none;stroke-opacity:1"
           id="g3379-1-7-3" />
        <g
           style="stroke:#000000;stroke-width:44.05806351;stroke-linecap:round;stroke-linejoin:round;stroke-miterlimit:4;stroke-dasharray:none;stroke-opacity:1"
           id="g3381-8-6-1" />
      </g>
      <path
         inkscape:connector-curvature="0"
         id="text4311-5-4"
         d="m 405.74715,667.4568 c -5.54799,0 -9.80903,1.345 -12.7832,4.0332 -2.91699,2.6882 -4.375,6.1771 -4.375,10.4668 v 3.9472 h -4.63282 c -1.37269,0 -2.51651,0.456 -3.43164,1.3711 -0.91513,0.858 -1.37304,1.975 -1.37304,3.3477 0,1.3727 0.45791,2.5165 1.37304,3.4316 0.91513,0.858 2.05895,1.2871 3.43164,1.2871 h 4.63282 v 30.3692 c 0,1.4871 0.4847,2.7458 1.45703,3.7754 0.97232,0.9723 2.20236,1.4589 3.68945,1.4589 1.48709,0 2.71713,-0.4866 3.68945,-1.4589 0.97233,-1.0296 1.45899,-2.2883 1.45899,-3.7754 v -30.3692 h 7.80664 c 1.3727,0 2.51651,-0.4291 3.43164,-1.2871 0.91513,-0.9151 1.37305,-2.0589 1.37305,-3.4316 0,-1.3727 -0.45792,-2.4897 -1.37305,-3.3477 -0.91513,-0.9151 -2.05894,-1.3711 -3.43164,-1.3711 h -7.80664 v -4.0332 c 0,-1.3155 0.40043,-2.5168 1.20117,-3.6035 0.80074,-1.1439 2.17253,-1.7148 4.11719,-1.7148 0.91513,0 2.05894,0.1705 3.43164,0.5136 0.34317,0.057 0.65933,0.1147 0.94531,0.1719 0.34317,0.057 0.65738,0.086 0.94336,0.086 1.14391,0 2.11528,-0.4292 2.91602,-1.2871 0.80074,-0.8579 1.20117,-1.973 1.20117,-3.3457 0,-1.7731 -0.80087,-3.0893 -2.40235,-3.9473 -1.54428,-0.8579 -3.37399,-1.2871 -5.49023,-1.2871 z m -180.88477,3.4336 c -1.48708,0 -2.74586,0.4559 -3.77539,1.371 -0.97232,0.9152 -1.45898,2.0877 -1.45898,3.5176 0,1.4871 0.48666,2.6884 1.45898,3.6035 0.97233,0.9152 2.23111,1.3731 3.77539,1.3731 h 13.46876 v 44.9551 c 0,1.4871 0.51539,2.7458 1.54492,3.7754 1.02952,0.9723 2.34578,1.4589 3.94726,1.4589 1.60148,0 2.94453,-0.4866 4.03125,-1.4589 1.08672,-1.0296 1.63086,-2.2883 1.63086,-3.7754 v -44.9551 h 13.46875 c 1.54429,0 2.80307,-0.4292 3.77539,-1.2871 0.97233,-0.9152 1.45899,-2.1164 1.45899,-3.6035 0,-1.4871 -0.48666,-2.6884 -1.45899,-3.6036 -0.97232,-0.9151 -2.2311,-1.371 -3.77539,-1.371 z m 70.2129,13.2968 c -2.80259,0 -5.43317,0.6284 -7.89258,1.8867 -2.45942,1.2012 -4.34661,2.9753 -5.66211,5.3204 v -1.1153 c 0,-1.4871 -0.48666,-2.7171 -1.45899,-3.6894 -0.97232,-1.0296 -2.20236,-1.5449 -3.68945,-1.5449 -1.48709,0 -2.71517,0.5153 -3.6875,1.5449 -0.97233,0.9723 -1.45898,2.2023 -1.45898,3.6894 v 35.4317 c 0,1.4871 0.48665,2.7458 1.45898,3.7754 0.97233,0.9723 2.20041,1.4589 3.6875,1.4589 1.48709,0 2.71713,-0.4866 3.68945,-1.4589 0.97233,-1.0296 1.45899,-2.2883 1.45899,-3.7754 v -20.3321 c 0,-2.5738 0.42917,-4.7752 1.28711,-6.6054 0.91513,-1.8875 2.05894,-3.29 3.43164,-4.2051 1.3727,-0.9151 2.80197,-1.3731 4.28906,-1.3731 0.68635,0 1.31672,0.086 1.88867,0.2579 0.62916,0.1715 1.02959,0.2865 1.20117,0.3437 1.08672,0.4004 2.05808,0.5996 2.91602,0.5996 1.25831,0 2.34463,-0.4292 3.25977,-1.2871 0.91513,-0.9151 1.37304,-2.2582 1.37304,-4.0312 0,-1.3155 -0.59967,-2.4594 -1.80078,-3.4317 -1.14391,-0.9723 -2.57514,-1.459 -4.29101,-1.459 z m 51.81249,0 c -3.83211,0 -7.34782,1.0289 -10.55078,3.0879 -3.14576,2.0019 -5.63458,4.8336 -7.46484,8.4942 -1.83026,3.6033 -2.74609,7.6938 -2.74609,12.2695 0,4.5756 0.91583,8.6642 2.74609,12.2676 1.88746,3.6033 4.4318,6.4351 7.63477,8.4941 3.20296,2.0019 6.7781,3.002 10.7246,3.002 2.6882,0 5.2345,-0.571 7.63672,-1.7149 2.45942,-1.2011 4.40409,-2.6323 5.83399,-4.291 0.0572,1.4871 0.5419,2.7171 1.45703,3.6895 0.97233,0.9723 2.20236,1.4589 3.68945,1.4589 1.48709,0 2.71713,-0.4866 3.68945,-1.4589 0.97233,-1.0296 1.45899,-2.2883 1.45899,-3.7754 v -36.2891 c 0,-1.5443 -0.48666,-2.8031 -1.45899,-3.7754 -0.97232,-0.9723 -2.20236,-1.459 -3.68945,-1.459 -1.48709,0 -2.71712,0.5154 -3.68945,1.545 -0.97233,0.9723 -1.45703,2.2023 -1.45703,3.6894 v 0.086 c -1.65868,-1.5443 -3.68958,-2.8031 -6.0918,-3.7754 -2.40222,-1.0295 -4.97726,-1.5449 -7.72266,-1.5449 z m -33.91601,0.8575 c -1.48709,0 -2.71713,0.5153 -3.68945,1.5449 -0.97233,0.9723 -1.45703,2.2023 -1.45703,3.6894 v 35.4317 c 0,1.4871 0.4847,2.7458 1.45703,3.7754 0.97232,0.9723 2.20236,1.4589 3.68945,1.4589 1.48709,0 2.71713,-0.4866 3.68945,-1.4589 0.97233,-1.0296 1.45899,-2.2883 1.45899,-3.7754 V 690.279 c 0,-1.4871 -0.48666,-2.7171 -1.45899,-3.6894 -0.97232,-1.0296 -2.20236,-1.5449 -3.68945,-1.5449 z m 110.18945,0 c -1.48709,0 -2.71712,0.5153 -3.68945,1.5449 -0.97233,0.9723 -1.45899,2.2023 -1.45899,3.6894 v 21.791 c 0,6.1772 1.68796,11.0111 5.0625,14.5 3.37455,3.489 8.20652,5.2325 14.49805,5.2325 6.29153,0 11.12545,-1.7435 14.5,-5.2325 3.43174,-3.4889 5.14649,-8.3228 5.14649,-14.5 v -21.791 c 0,-1.4871 -0.48471,-2.7171 -1.45704,-3.6894 -0.97232,-1.0296 -2.20236,-1.5449 -3.68945,-1.5449 -1.48709,0 -2.71712,0.5153 -3.68945,1.5449 -0.97233,0.9723 -1.45899,2.2023 -1.45899,3.6894 v 21.791 c 0,3.489 -0.77212,6.0908 -2.3164,7.8067 -1.54429,1.6587 -3.88939,2.4883 -7.03516,2.4883 -3.08857,0 -5.40493,-0.8296 -6.94922,-2.4883 -1.54428,-1.7159 -2.3164,-4.3177 -2.3164,-7.8067 v -21.791 c 0,-1.4871 -0.48666,-2.7171 -1.45899,-3.6894 -0.97233,-1.0296 -2.20041,-1.5449 -3.6875,-1.5449 z m -74.64258,8.58 c 3.71773,0 6.74873,1.3718 9.09375,4.1172 2.34503,2.7454 3.51758,6.1788 3.51758,10.2969 0,4.1181 -1.17255,7.5495 -3.51758,10.2949 -2.34502,2.6882 -5.37602,4.0313 -9.09375,4.0313 -3.71772,0 -6.74872,-1.3431 -9.09375,-4.0313 -2.28783,-2.7454 -3.43164,-6.1768 -3.43164,-10.2949 0,-4.1181 1.17256,-7.5515 3.51758,-10.2969 2.34503,-2.7454 5.34729,-4.1172 9.00781,-4.1172 z"
         style="font-style:normal;font-weight:normal;font-size:85.7935791px;line-height:125%;font-family:sans-serif;letter-spacing:0px;word-spacing:0px;fill:#9696c8;fill-opacity:1;stroke:none;stroke-width:1px;stroke-linecap:butt;stroke-linejoin:miter;stroke-opacity:1" />
      <g
         style="stroke:#000000;stroke-width:44.05806351;stroke-linecap:round;stroke-linejoin:round;stroke-miterlimit:4;stroke-dasharray:none;stroke-opacity:1"
         transform="matrix(0.03026687,0,0,0.03026687,299.69982,654.8105)"
         id="g3389-6-4-9-9">
        <g
           style="stroke:#000000;stroke-width:44.05806351;stroke-linecap:round;stroke-linejoin:round;stroke-miterlimit:4;stroke-dasharray:none;stroke-opacity:1"
           id="g3343-7-7-3-2">
          <g
             style="stroke:#000000;stroke-width:44.05806351;stroke-linecap:round;stroke-linejoin:round;stroke-miterlimit:4;stroke-dasharray:none;stroke-opacity:1"
             id="g3345-5-8-7-0">
            <polygon
               style="fill:#ff96ff;fill-opacity:1;stroke:#000000;stroke-width:44.05806351;stroke-linecap:round;stroke-linejoin:round;stroke-miterlimit:4;stroke-dasharray:none;stroke-opacity:1"
               points="223.928,447.852 671.778,447.852 447.853,89.57 "
               id="polygon3347-3-4-4-6"
               transform="matrix(1.0832367,0,0,1.0832367,-45.09992,-36.910982)" />
            <polygon
               style="fill:#ffff96;fill-opacity:1;stroke:#000000;stroke-width:44.05806351;stroke-linecap:round;stroke-linejoin:round;stroke-miterlimit:4;stroke-dasharray:none;stroke-opacity:1"
               points="447.853,806.133 223.928,447.852 0,806.133 "
               id="polygon3349-5-5-5-8"
               transform="matrix(1.0832367,0,0,1.0832367,-45.09992,-36.910982)" />
            <polygon
               style="fill:#ff6e00;fill-opacity:1;stroke:#000000;stroke-width:44.05806351;stroke-linecap:round;stroke-linejoin:round;stroke-miterlimit:4;stroke-dasharray:none;stroke-opacity:1"
               points="447.853,806.133 895.703,806.133 671.778,447.852 "
               id="polygon3351-6-0-2-9"
               transform="matrix(1.0832367,0,0,1.0832367,-45.09992,-36.910982)" />
          </g>
        </g>
        <g
           style="stroke:#000000;stroke-width:44.05806351;stroke-linecap:round;stroke-linejoin:round;stroke-miterlimit:4;stroke-dasharray:none;stroke-opacity:1"
           id="g3353-2-3-5-2" />
        <g
           style="stroke:#000000;stroke-width:44.05806351;stroke-linecap:round;stroke-linejoin:round;stroke-miterlimit:4;stroke-dasharray:none;stroke-opacity:1"
           id="g3355-9-6-4-6" />
        <g
           style="stroke:#000000;stroke-width:44.05806351;stroke-linecap:round;stroke-linejoin:round;stroke-miterlimit:4;stroke-dasharray:none;stroke-opacity:1"
           id="g3357-1-1-7-6" />
        <g
           style="stroke:#000000;stroke-width:44.05806351;stroke-linecap:round;stroke-linejoin:round;stroke-miterlimit:4;stroke-dasharray:none;stroke-opacity:1"
           id="g3359-2-0-4-4" />
        <g
           style="stroke:#000000;stroke-width:44.05806351;stroke-linecap:round;stroke-linejoin:round;stroke-miterlimit:4;stroke-dasharray:none;stroke-opacity:1"
           id="g3361-7-6-4-9" />
        <g
           style="stroke:#000000;stroke-width:44.05806351;stroke-linecap:round;stroke-linejoin:round;stroke-miterlimit:4;stroke-dasharray:none;stroke-opacity:1"
           id="g3363-0-3-3-5" />
        <g
           style="stroke:#000000;stroke-width:44.05806351;stroke-linecap:round;stroke-linejoin:round;stroke-miterlimit:4;stroke-dasharray:none;stroke-opacity:1"
           id="g3365-9-2-0-0" />
        <g
           style="stroke:#000000;stroke-width:44.05806351;stroke-linecap:round;stroke-linejoin:round;stroke-miterlimit:4;stroke-dasharray:none;stroke-opacity:1"
           id="g3367-3-0-7-4" />
        <g
           style="stroke:#000000;stroke-width:44.05806351;stroke-linecap:round;stroke-linejoin:round;stroke-miterlimit:4;stroke-dasharray:none;stroke-opacity:1"
           id="g3369-6-6-8-8" />
        <g
           style="stroke:#000000;stroke-width:44.05806351;stroke-linecap:round;stroke-linejoin:round;stroke-miterlimit:4;stroke-dasharray:none;stroke-opacity:1"
           id="g3371-0-1-6-7" />
        <g
           style="stroke:#000000;stroke-width:44.05806351;stroke-linecap:round;stroke-linejoin:round;stroke-miterlimit:4;stroke-dasharray:none;stroke-opacity:1"
           id="g3373-6-5-8-1" />
        <g
           style="stroke:#000000;stroke-width:44.05806351;stroke-linecap:round;stroke-linejoin:round;stroke-miterlimit:4;stroke-dasharray:none;stroke-opacity:1"
           id="g3375-2-5-8-7" />
        <g
           style="stroke:#000000;stroke-width:44.05806351;stroke-linecap:round;stroke-linejoin:round;stroke-miterlimit:4;stroke-dasharray:none;stroke-opacity:1"
           id="g3377-6-4-4-2" />
        <g
           style="stroke:#000000;stroke-width:44.05806351;stroke-linecap:round;stroke-linejoin:round;stroke-miterlimit:4;stroke-dasharray:none;stroke-opacity:1"
           id="g3379-1-7-3-7" />
        <g
           style="stroke:#000000;stroke-width:44.05806351;stroke-linecap:round;stroke-linejoin:round;stroke-miterlimit:4;stroke-dasharray:none;stroke-opacity:1"
           id="g3381-8-6-1-2" />
      </g>
      <g
         style="stroke:#9696c8;stroke-width:44.05806351;stroke-linecap:round;stroke-linejoin:round;stroke-miterlimit:4;stroke-dasharray:none;stroke-opacity:1"
         transform="matrix(0.03026687,0,0,0.03026687,299.69978,739.8427)"
         id="g3389-6-4-9-9-9">
        <g
           style="stroke:#9696c8;stroke-width:44.05806351;stroke-linecap:round;stroke-linejoin:round;stroke-miterlimit:4;stroke-dasharray:none;stroke-opacity:1"
           id="g3343-7-7-3-2-2">
          <g
             style="stroke:#9696c8;stroke-width:44.05806351;stroke-linecap:round;stroke-linejoin:round;stroke-miterlimit:4;stroke-dasharray:none;stroke-opacity:1"
             id="g3345-5-8-7-0-0" />
        </g>
        <g
           style="stroke:#9696c8;stroke-width:44.05806351;stroke-linecap:round;stroke-linejoin:round;stroke-miterlimit:4;stroke-dasharray:none;stroke-opacity:1"
           id="g3353-2-3-5-2-5" />
        <g
           style="stroke:#9696c8;stroke-width:44.05806351;stroke-linecap:round;stroke-linejoin:round;stroke-miterlimit:4;stroke-dasharray:none;stroke-opacity:1"
           id="g3355-9-6-4-6-9" />
        <g
           style="stroke:#9696c8;stroke-width:44.05806351;stroke-linecap:round;stroke-linejoin:round;stroke-miterlimit:4;stroke-dasharray:none;stroke-opacity:1"
           id="g3357-1-1-7-6-2" />
        <g
           style="stroke:#9696c8;stroke-width:44.05806351;stroke-linecap:round;stroke-linejoin:round;stroke-miterlimit:4;stroke-dasharray:none;stroke-opacity:1"
           id="g3359-2-0-4-4-2" />
        <g
           style="stroke:#9696c8;stroke-width:44.05806351;stroke-linecap:round;stroke-linejoin:round;stroke-miterlimit:4;stroke-dasharray:none;stroke-opacity:1"
           id="g3361-7-6-4-9-8" />
        <g
           style="stroke:#9696c8;stroke-width:44.05806351;stroke-linecap:round;stroke-linejoin:round;stroke-miterlimit:4;stroke-dasharray:none;stroke-opacity:1"
           id="g3363-0-3-3-5-9" />
        <g
           style="stroke:#9696c8;stroke-width:44.05806351;stroke-linecap:round;stroke-linejoin:round;stroke-miterlimit:4;stroke-dasharray:none;stroke-opacity:1"
           id="g3365-9-2-0-0-7" />
        <g
           style="stroke:#9696c8;stroke-width:44.05806351;stroke-linecap:round;stroke-linejoin:round;stroke-miterlimit:4;stroke-dasharray:none;stroke-opacity:1"
           id="g3367-3-0-7-4-3" />
        <g
           style="stroke:#9696c8;stroke-width:44.05806351;stroke-linecap:round;stroke-linejoin:round;stroke-miterlimit:4;stroke-dasharray:none;stroke-opacity:1"
           id="g3369-6-6-8-8-6" />
        <g
           style="stroke:#9696c8;stroke-width:44.05806351;stroke-linecap:round;stroke-linejoin:round;stroke-miterlimit:4;stroke-dasharray:none;stroke-opacity:1"
           id="g3371-0-1-6-7-1" />
        <g
           style="stroke:#9696c8;stroke-width:44.05806351;stroke-linecap:round;stroke-linejoin:round;stroke-miterlimit:4;stroke-dasharray:none;stroke-opacity:1"
           id="g3373-6-5-8-1-2" />
        <g
           style="stroke:#9696c8;stroke-width:44.05806351;stroke-linecap:round;stroke-linejoin:round;stroke-miterlimit:4;stroke-dasharray:none;stroke-opacity:1"
           id="g3375-2-5-8-7-9" />
        <g
           style="stroke:#9696c8;stroke-width:44.05806351;stroke-linecap:round;stroke-linejoin:round;stroke-miterlimit:4;stroke-dasharray:none;stroke-opacity:1"
           id="g3377-6-4-4-2-3" />
        <g
           style="stroke:#9696c8;stroke-width:44.05806351;stroke-linecap:round;stroke-linejoin:round;stroke-miterlimit:4;stroke-dasharray:none;stroke-opacity:1"
           id="g3379-1-7-3-7-1" />
        <g
           style="stroke:#9696c8;stroke-width:44.05806351;stroke-linecap:round;stroke-linejoin:round;stroke-miterlimit:4;stroke-dasharray:none;stroke-opacity:1"
           id="g3381-8-6-1-2-9" />
      </g>
      <g
         style="stroke:#000000;stroke-width:44.05806351;stroke-linecap:round;stroke-linejoin:round;stroke-miterlimit:4;stroke-dasharray:none;stroke-opacity:1"
         transform="matrix(0.0571349,0,0,0.0571349,462.06277,525.77068)"
         id="g3389-6-4-0">
        <g
           style="stroke:#000000;stroke-width:44.05806351;stroke-linecap:round;stroke-linejoin:round;stroke-miterlimit:4;stroke-dasharray:none;stroke-opacity:1"
           id="g3343-7-7-2">
          <g
             style="stroke:#000000;stroke-width:44.05806351;stroke-linecap:round;stroke-linejoin:round;stroke-miterlimit:4;stroke-dasharray:none;stroke-opacity:1"
             id="g3345-5-8-3" />
        </g>
        <g
           style="stroke:#000000;stroke-width:44.05806351;stroke-linecap:round;stroke-linejoin:round;stroke-miterlimit:4;stroke-dasharray:none;stroke-opacity:1"
           id="g3353-2-3-8" />
        <g
           style="stroke:#000000;stroke-width:44.05806351;stroke-linecap:round;stroke-linejoin:round;stroke-miterlimit:4;stroke-dasharray:none;stroke-opacity:1"
           id="g3355-9-6-9" />
        <g
           style="stroke:#000000;stroke-width:44.05806351;stroke-linecap:round;stroke-linejoin:round;stroke-miterlimit:4;stroke-dasharray:none;stroke-opacity:1"
           id="g3357-1-1-73" />
        <g
           style="stroke:#000000;stroke-width:44.05806351;stroke-linecap:round;stroke-linejoin:round;stroke-miterlimit:4;stroke-dasharray:none;stroke-opacity:1"
           id="g3359-2-0-6" />
        <g
           style="stroke:#000000;stroke-width:44.05806351;stroke-linecap:round;stroke-linejoin:round;stroke-miterlimit:4;stroke-dasharray:none;stroke-opacity:1"
           id="g3361-7-6-1" />
        <g
           style="stroke:#000000;stroke-width:44.05806351;stroke-linecap:round;stroke-linejoin:round;stroke-miterlimit:4;stroke-dasharray:none;stroke-opacity:1"
           id="g3363-0-3-2" />
        <g
           style="stroke:#000000;stroke-width:44.05806351;stroke-linecap:round;stroke-linejoin:round;stroke-miterlimit:4;stroke-dasharray:none;stroke-opacity:1"
           id="g3365-9-2-9" />
        <g
           style="stroke:#000000;stroke-width:44.05806351;stroke-linecap:round;stroke-linejoin:round;stroke-miterlimit:4;stroke-dasharray:none;stroke-opacity:1"
           id="g3367-3-0-3" />
        <g
           style="stroke:#000000;stroke-width:44.05806351;stroke-linecap:round;stroke-linejoin:round;stroke-miterlimit:4;stroke-dasharray:none;stroke-opacity:1"
           id="g3369-6-6-1" />
        <g
           style="stroke:#000000;stroke-width:44.05806351;stroke-linecap:round;stroke-linejoin:round;stroke-miterlimit:4;stroke-dasharray:none;stroke-opacity:1"
           id="g3371-0-1-9" />
        <g
           style="stroke:#000000;stroke-width:44.05806351;stroke-linecap:round;stroke-linejoin:round;stroke-miterlimit:4;stroke-dasharray:none;stroke-opacity:1"
           id="g3373-6-5-4" />
        <g
           style="stroke:#000000;stroke-width:44.05806351;stroke-linecap:round;stroke-linejoin:round;stroke-miterlimit:4;stroke-dasharray:none;stroke-opacity:1"
           id="g3375-2-5-7" />
        <g
           style="stroke:#000000;stroke-width:44.05806351;stroke-linecap:round;stroke-linejoin:round;stroke-miterlimit:4;stroke-dasharray:none;stroke-opacity:1"
           id="g3377-6-4-8" />
        <g
           style="stroke:#000000;stroke-width:44.05806351;stroke-linecap:round;stroke-linejoin:round;stroke-miterlimit:4;stroke-dasharray:none;stroke-opacity:1"
           id="g3379-1-7-4" />
        <g
           style="stroke:#000000;stroke-width:44.05806351;stroke-linecap:round;stroke-linejoin:round;stroke-miterlimit:4;stroke-dasharray:none;stroke-opacity:1"
           id="g3381-8-6-5" />
      </g>
      <g
         style="stroke:#9696c8;stroke-width:44.05806351;stroke-linecap:round;stroke-linejoin:round;stroke-miterlimit:4;stroke-dasharray:none;stroke-opacity:1"
         transform="matrix(0.0571349,0,0,0.0571349,462.06271,598.92298)"
         id="g3389-6-4-0-7">
        <g
           style="stroke:#9696c8;stroke-width:44.05806351;stroke-linecap:round;stroke-linejoin:round;stroke-miterlimit:4;stroke-dasharray:none;stroke-opacity:1"
           id="g3343-7-7-2-5">
          <g
             style="stroke:#9696c8;stroke-width:44.05806351;stroke-linecap:round;stroke-linejoin:round;stroke-miterlimit:4;stroke-dasharray:none;stroke-opacity:1"
             id="g3345-5-8-3-3" />
        </g>
        <g
           style="stroke:#9696c8;stroke-width:44.05806351;stroke-linecap:round;stroke-linejoin:round;stroke-miterlimit:4;stroke-dasharray:none;stroke-opacity:1"
           id="g3353-2-3-8-9" />
        <g
           style="stroke:#9696c8;stroke-width:44.05806351;stroke-linecap:round;stroke-linejoin:round;stroke-miterlimit:4;stroke-dasharray:none;stroke-opacity:1"
           id="g3355-9-6-9-1" />
        <g
           style="stroke:#9696c8;stroke-width:44.05806351;stroke-linecap:round;stroke-linejoin:round;stroke-miterlimit:4;stroke-dasharray:none;stroke-opacity:1"
           id="g3357-1-1-73-2" />
        <g
           style="stroke:#9696c8;stroke-width:44.05806351;stroke-linecap:round;stroke-linejoin:round;stroke-miterlimit:4;stroke-dasharray:none;stroke-opacity:1"
           id="g3359-2-0-6-7" />
        <g
           style="stroke:#9696c8;stroke-width:44.05806351;stroke-linecap:round;stroke-linejoin:round;stroke-miterlimit:4;stroke-dasharray:none;stroke-opacity:1"
           id="g3361-7-6-1-0" />
        <g
           style="stroke:#9696c8;stroke-width:44.05806351;stroke-linecap:round;stroke-linejoin:round;stroke-miterlimit:4;stroke-dasharray:none;stroke-opacity:1"
           id="g3363-0-3-2-9" />
        <g
           style="stroke:#9696c8;stroke-width:44.05806351;stroke-linecap:round;stroke-linejoin:round;stroke-miterlimit:4;stroke-dasharray:none;stroke-opacity:1"
           id="g3365-9-2-9-3" />
        <g
           style="stroke:#9696c8;stroke-width:44.05806351;stroke-linecap:round;stroke-linejoin:round;stroke-miterlimit:4;stroke-dasharray:none;stroke-opacity:1"
           id="g3367-3-0-3-6" />
        <g
           style="stroke:#9696c8;stroke-width:44.05806351;stroke-linecap:round;stroke-linejoin:round;stroke-miterlimit:4;stroke-dasharray:none;stroke-opacity:1"
           id="g3369-6-6-1-0" />
        <g
           style="stroke:#9696c8;stroke-width:44.05806351;stroke-linecap:round;stroke-linejoin:round;stroke-miterlimit:4;stroke-dasharray:none;stroke-opacity:1"
           id="g3371-0-1-9-6" />
        <g
           style="stroke:#9696c8;stroke-width:44.05806351;stroke-linecap:round;stroke-linejoin:round;stroke-miterlimit:4;stroke-dasharray:none;stroke-opacity:1"
           id="g3373-6-5-4-2" />
        <g
           style="stroke:#9696c8;stroke-width:44.05806351;stroke-linecap:round;stroke-linejoin:round;stroke-miterlimit:4;stroke-dasharray:none;stroke-opacity:1"
           id="g3375-2-5-7-6" />
        <g
           style="stroke:#9696c8;stroke-width:44.05806351;stroke-linecap:round;stroke-linejoin:round;stroke-miterlimit:4;stroke-dasharray:none;stroke-opacity:1"
           id="g3377-6-4-8-1" />
        <g
           style="stroke:#9696c8;stroke-width:44.05806351;stroke-linecap:round;stroke-linejoin:round;stroke-miterlimit:4;stroke-dasharray:none;stroke-opacity:1"
           id="g3379-1-7-4-8" />
        <g
           style="stroke:#9696c8;stroke-width:44.05806351;stroke-linecap:round;stroke-linejoin:round;stroke-miterlimit:4;stroke-dasharray:none;stroke-opacity:1"
           id="g3381-8-6-5-7" />
      </g>
    </g>
  </g>
</svg>
